<svg width="70" height="70" viewBox="0 0 70 70" fill="none" xmlns="http://www.w3.org/2000/svg">
<g id="adidas-logo-svgrepo-com 1" clip-path="url(#clip0_4045_18163)">
<g id="Group">
<path id="Vector" fill-rule="evenodd" clip-rule="evenodd" d="M0.679688 0H69.6797V70H0.679688V0Z" fill="white"/>
<path id="Vector_2" fill-rule="evenodd" clip-rule="evenodd" d="M65.5408 43.8127C65.8225 43.9761 66.105 44.0477 66.4071 44.0477H66.4168C66.7196 44.0477 67.002 43.9761 67.2838 43.8127C67.5592 43.6659 67.7843 43.4377 67.9292 43.1583C68.0813 42.8911 68.161 42.5877 68.1604 42.2791C68.1604 41.9621 68.0899 41.6658 67.9292 41.3792C67.7774 41.0931 67.5558 40.8784 67.2741 40.7248C66.9917 40.5716 66.7099 40.4902 66.4168 40.4902H66.4071C66.1074 40.4994 65.814 40.5798 65.5505 40.7248C65.2688 40.8784 65.0568 41.0931 64.8954 41.3792C64.7407 41.6529 64.6609 41.9636 64.6642 42.2791C64.6642 42.5755 64.7347 42.8722 64.8954 43.1583C65.0401 43.4379 65.2652 43.6661 65.5408 43.8127ZM65.1481 41.5328C65.2755 41.3011 65.4639 41.1099 65.6922 40.9805C65.9235 40.8577 66.1655 40.7866 66.4075 40.7866H66.4171C66.6591 40.7866 66.9011 40.8577 67.1331 40.9805C67.3612 41.1101 67.5496 41.3013 67.6772 41.5328C67.8085 41.7678 67.8687 42.0133 67.8687 42.2791C67.8699 42.5372 67.8038 42.791 67.6772 43.0149C67.5532 43.2431 67.368 43.4309 67.1431 43.5567C66.9223 43.6851 66.672 43.7521 66.4175 43.751H66.4078C66.1533 43.752 65.9031 43.6849 65.6822 43.5567C65.4576 43.4307 65.2727 43.2429 65.1488 43.0149C65.0175 42.7799 64.947 42.5348 64.947 42.2791C64.9459 42.0133 65.0164 41.7682 65.1481 41.5328Z" fill="#999999"/>
<path id="Vector_3" fill-rule="evenodd" clip-rule="evenodd" d="M65.9447 42.4413H66.1259C66.2372 42.4413 66.3174 42.462 66.3679 42.5128C66.3883 42.523 66.3987 42.5335 66.4083 42.5433C66.4889 42.6148 66.5798 42.7583 66.6908 42.9526L66.8622 43.2591H67.2252L67.0036 42.881C66.8923 42.7071 66.7917 42.5742 66.7212 42.5026C66.6744 42.4584 66.6195 42.4237 66.5597 42.4006C66.7212 42.3904 66.8518 42.329 66.9528 42.2266C67.0537 42.1242 67.1046 42.0018 67.1046 41.8584C67.1046 41.7563 67.0738 41.6641 67.0136 41.5824C66.9572 41.4937 66.8714 41.4284 66.7717 41.3983C66.6911 41.3678 66.5705 41.3471 66.4087 41.3471C66.3786 41.3471 66.3382 41.3369 66.2981 41.3369H65.643V43.2587H65.9451L65.9447 42.4413ZM65.9447 41.6027H66.4083C66.4992 41.6133 66.5594 41.6234 66.5998 41.6336C66.6546 41.6494 66.7014 41.6859 66.7305 41.7356C66.7606 41.7763 66.7709 41.8279 66.7709 41.8893C66.7721 41.9281 66.7645 41.9666 66.7487 42.002C66.733 42.0373 66.7095 42.0686 66.68 42.0934C66.6295 42.1446 66.5386 42.1649 66.408 42.1754H65.9444V41.6027H65.9447ZM20.69 41.8177H23.4109L20.69 37.2173L18.3923 33.3432L8.62803 39.2927L10.1193 41.8177H20.69ZM46.0028 41.8177H59.2945L51.0208 27.833L41.8716 12.3965L38.1026 14.6967L32.117 18.346L38.1026 28.4566L46.0028 41.8177ZM41.3579 46.4283C40.4204 45.8153 39.3218 45.4572 38.1326 45.4572H38.1026C34.8179 45.4776 32.1474 48.1969 32.1474 51.5295C32.1474 54.8626 34.8179 57.5815 38.1026 57.6022H38.1326C39.3218 57.6022 40.4204 57.2445 41.3579 56.6311V57.2648H44.1085V41.8181H41.3579V46.4283ZM41.3579 52.1636C41.0658 53.6972 39.7252 54.8724 38.1326 54.8724H38.1026C36.2988 54.852 34.8379 53.3595 34.8379 51.5295C34.8379 49.7 36.2988 48.2074 38.1026 48.1969H38.1326C39.7252 48.1969 41.0654 49.3626 41.3579 50.8958V52.1636ZM54.2761 46.4283C53.3172 45.7935 52.1966 45.456 51.0516 45.4572H51.0208C47.7361 45.4776 45.0661 48.1969 45.0661 51.5295C45.0661 54.8626 47.7361 57.5815 51.0208 57.6022H51.0516C52.2408 57.6022 53.349 57.2445 54.2761 56.6311V57.2648H57.0275V45.7637H54.2761V46.4283ZM54.2761 52.1636C53.9841 53.6972 52.6435 54.8724 51.0516 54.8724H51.0208C49.2177 54.852 47.7565 53.3595 47.7565 51.5295C47.7565 49.7 49.2177 48.2074 51.0208 48.1969H51.0516C52.6435 48.1969 53.9837 49.3626 54.2761 50.8958V52.1636ZM66.8117 50.7731C66.7112 50.7215 66.5698 50.6707 66.4083 50.6093C65.7937 50.3947 64.796 50.1288 63.4053 49.8223C62.1861 49.546 61.5715 49.1886 61.5715 48.7387C61.5715 48.4217 61.6821 48.166 61.8937 47.9822C62.1761 47.7368 62.6794 47.614 63.4053 47.614C64.141 47.614 64.675 47.7778 64.9875 48.0945C65.1791 48.2887 65.3197 48.6359 65.4107 49.1269H68.3331C68.3331 47.6754 67.7485 46.6328 66.5998 45.9991C66.5393 45.959 66.4752 45.9248 66.4083 45.897C65.6118 45.5186 64.5541 45.3243 63.2342 45.3243C61.6316 45.3243 60.4228 45.7539 59.617 46.6226C58.9723 47.3177 58.6598 48.166 58.6598 49.1679C58.6598 50.4157 59.264 51.3149 60.4936 51.8978C60.9572 52.1226 62.0855 52.4396 63.8796 52.8282C65.0788 53.094 65.6827 53.4724 65.6827 53.9529C65.6827 54.2394 65.5624 54.4845 65.3004 54.7093C64.9675 54.9955 64.4635 55.1389 63.7887 55.1389C62.8917 55.1389 62.257 54.9857 61.8843 54.6893C61.511 54.4032 61.3195 53.9841 61.3195 53.4524H58.2564C58.2564 54.8633 58.8409 55.9161 60.0197 56.6108C60.9572 57.1526 62.1865 57.429 63.7085 57.429C64.7259 57.429 65.6326 57.255 66.4087 56.918C66.5701 56.8465 66.7115 56.7746 66.8626 56.6928C68.0618 56.0185 68.6664 54.945 68.6664 53.4731C68.666 52.2656 68.0507 51.3657 66.8117 50.7731ZM10.9054 46.4283C9.94219 45.7947 8.81881 45.4575 7.67083 45.4572H7.6404C4.36574 45.4776 1.69531 48.1969 1.69531 51.5295C1.69531 54.8626 4.36574 57.5815 7.6404 57.6022H7.67083C8.85999 57.6022 9.96825 57.2445 10.9054 56.6311V57.2648H13.6564V45.7637H10.9054V46.4283ZM10.9054 52.1636C10.6133 53.6972 9.27273 54.8724 7.67083 54.8724H7.6404C5.847 54.852 4.38578 53.3595 4.38578 51.5295C4.38578 49.7 5.847 48.2074 7.6404 48.1969H7.67083C9.27308 48.1969 10.6133 49.3626 10.9054 50.8958V52.1636ZM28.0763 44.5475H31.0692V41.8791H28.0763V44.5475ZM28.0763 57.2644H31.0692V45.4572H28.0763V57.2644ZM23.955 46.4283C22.9917 45.7947 21.8682 45.4574 20.7201 45.4572H20.69C17.405 45.4776 14.7346 48.1969 14.7346 51.5295C14.7346 54.8626 17.4046 57.5815 20.69 57.6022H20.7201C21.8682 57.6021 22.9918 57.2649 23.955 56.6311V57.2648H26.706V41.8181H23.955V46.4283ZM23.955 52.1636C23.6629 53.6972 22.3224 54.8724 20.7201 54.8724H20.69C18.8862 54.852 17.425 53.3595 17.425 51.5295C17.425 49.7 18.8862 48.2074 20.69 48.1969H20.7201C22.3224 48.1969 23.6626 49.3626 23.955 50.8958V52.1636ZM41.3472 41.8177L38.1026 36.3181L30.1321 22.8647L20.69 28.6305L20.3675 28.8245L20.69 29.3663L28.0659 41.8177H41.3472Z" fill="#999999"/>
</g>
</g>
<defs>
<clipPath id="clip0_4045_18163">
<rect width="69" height="70" fill="white" transform="translate(0.679688)"/>
</clipPath>
</defs>
</svg>
