<svg width="47" height="46" viewBox="0 0 47 46" fill="none" xmlns="http://www.w3.org/2000/svg">
<g id="apple-black-logo-svgrepo-com 1" clip-path="url(#clip0_4045_18192)">
<path id="Vector" d="M35.9418 24.4384C36.0064 31.3997 42.0487 33.7162 42.1156 33.7457C42.0645 33.909 41.1502 37.0469 38.9323 40.2881C37.0149 43.0904 35.0251 45.8823 31.8905 45.9401C28.8104 45.9969 27.82 44.1137 24.2986 44.1137C20.7783 44.1137 19.6779 45.8824 16.7622 45.997C13.7365 46.1115 11.4324 42.9668 9.49928 40.1748C5.54903 34.4638 2.53023 24.0368 6.58372 16.9984C8.59741 13.5031 12.196 11.2897 16.102 11.233C19.0732 11.1763 21.8775 13.2319 23.6939 13.2319C25.5092 13.2319 28.9171 10.7599 32.4997 11.1229C33.9996 11.1854 38.2097 11.7288 40.913 15.6858C40.6952 15.8209 35.8896 18.6185 35.9418 24.4384ZM30.1531 7.34459C31.7595 5.40015 32.8407 2.6933 32.5457 0C30.2303 0.0930621 27.4304 1.54296 25.7695 3.48634C24.2811 5.20729 22.9776 7.96177 23.3293 10.6018C25.9102 10.8014 28.5467 9.29027 30.1531 7.34459Z" fill="#999999"/>
</g>
<defs>
<clipPath id="clip0_4045_18192">
<rect width="46" height="46" fill="white" transform="translate(0.386719)"/>
</clipPath>
</defs>
</svg>
