<svg width="135" height="44" viewBox="0 0 135 44" fill="none" xmlns="http://www.w3.org/2000/svg">
<path d="M51.9057 38.3563C46.9135 35.1405 40.1386 34.5762 29.2126 37.6075C17.5646 40.3447 13.681 42.0994 8.58076 38.577C6.62135 36.8467 5.91886 34.0607 6.44342 30.0476C7.66009 23.5056 10.948 17.21 16.7884 10.2266C20.0481 6.59387 23.0721 3.47632 27.0649 2.22444C30.1251 1.4391 29.839 3.84409 29.4687 4.18804C29.0779 4.18804 28.4216 4.24959 27.9143 4.58063C27.5026 4.89993 26.3724 5.93095 26.3117 7.31783C26.2242 9.44092 28.4212 8.99903 29.3689 7.83334C30.3904 6.51975 31.9 4.00424 30.7125 1.65979C30.2148 0.825313 29.3548 0.248592 28.2871 0.0522148C24.6309 -0.15674 21.2259 1.58617 18.0832 3.51305C11.2105 8.28731 5.71275 14.9028 2.60191 22.1441C0.808523 26.5131 -0.813474 32.7717 1.61768 37.8656C3.4986 41.4001 7.40317 43.2775 12.0617 42.8849C15.329 42.5416 19.2799 41.4856 21.9371 40.848C24.5945 40.2092 38.1963 35.5338 42.6655 43.6714C42.6655 43.6714 44.1517 40.7865 47.8657 40.7249C50.9192 40.4432 55.3244 41.6089 58.5322 43.9649C57.4634 42.3576 54.4334 39.9889 51.9057 38.3563Z" fill="#999999"/>
<path d="M30.6018 11.0492C28.0578 9.38006 22.9446 12.5711 18.8492 18.0446C15.1041 22.9544 13.4869 28.6607 15.247 31.2995C17.8648 34.4045 22.7249 29.8881 24.7916 27.4707L25.0583 27.1882C26.4638 25.6785 27.5495 23.862 28.6006 22.1189C28.6006 22.1189 29.5666 20.5234 29.6127 20.4496C30.2097 20.3396 30.9288 20.1677 31.7391 19.9345C31.7275 19.971 28.6388 25.1627 28.9539 27.7396C29.0521 28.5257 28.9773 31.3976 31.781 32.2688C35.5181 32.8952 38.5021 29.9983 41.1347 27.4209C41.1347 27.4209 41.5833 26.9918 41.837 26.7468C41.7728 27.0037 41.6891 27.3466 41.6891 27.3466C40.595 31.1514 42.0698 31.9498 42.9923 32.2443C45.7803 33.055 49.111 29.0045 49.1219 29.0045C49.0354 30.2804 48.783 31.3357 50.128 32.1828C51.3973 32.6372 52.682 31.9443 53.6587 31.2938C57.1762 28.8149 60.01 24.9346 62.2988 21.5808H60.8388C60.8215 21.5808 57.2363 26.7775 54.9081 27.9069C54.9044 27.9069 54.4806 28.1244 54.2366 27.9524C53.9343 27.6946 54.0535 27.1585 54.2401 26.7788C54.2519 26.7542 63.2296 11.1833 63.2296 11.1833H58.9908C58.9908 11.1833 58.5277 11.9325 58.49 11.9816C58.4615 11.9571 58.3936 11.8283 58.3466 11.7666C55.7204 8.13388 49.7733 13.7217 45.2958 20.2016C43.5721 22.6933 41.3774 25.4987 39.1017 27.5237C39.1017 27.5237 35.7302 30.6141 34.2898 28.3938C33.7633 27.4608 33.9253 26.0969 34.2223 25.2012C35.8994 20.4268 38.7894 16.0939 42.0782 13.4797C43.0064 12.756 44.0156 12.5467 44.5162 12.8536C44.9935 13.1364 45.0705 13.8354 44.7686 14.3141C44.0027 14.2897 43.3889 14.5224 42.8902 15.0379C41.9075 16.069 41.566 17.0633 41.8784 17.9962C43.3963 20.1561 46.4235 15.885 46.2771 13.2831C46.2247 12.3502 45.7272 11.4668 44.9843 11.0368C43.8773 10.3744 42.1885 10.5459 41.0956 11.074C39.6324 11.6261 37.3167 13.5528 35.9648 15.0503C34.263 16.9284 31.3442 19.0146 30.4316 18.781C30.7299 17.9831 33.1953 12.939 30.6018 11.0492ZM51.0379 18.5112C51.8625 17.37 54.2624 14.3138 54.8476 13.7985C56.8153 12.0673 57.6019 12.829 57.6699 13.3686C55.8335 16.6578 53.6659 20.4258 51.628 23.8134C51.6322 23.8013 50.9903 24.7828 50.9903 24.7828C50.0902 26.157 49.184 27.3354 47.7057 28.1575C47.4949 28.2193 47.1474 28.244 46.9162 28.0714C46.6378 27.8873 46.5279 27.5804 46.5593 27.2613C46.648 26.2061 47.7223 22.9789 51.0379 18.5112ZM27.9783 20.487C27.9783 20.487 27.9412 20.5979 27.9231 20.6341C27.9184 20.6341 26.0749 23.6406 26.0749 23.6406C24.9623 25.1259 23.5733 26.9919 21.8369 27.8875C21.3222 28.0592 20.6107 28.17 20.2481 27.7162C19.4795 26.7956 19.8757 25.519 20.1975 24.4884L20.3115 24.1201C21.2342 21.6166 22.6981 19.407 24.1232 17.3574C24.1409 17.3453 24.1809 17.3331 24.1953 17.3331C24.1988 17.3453 24.2045 17.3453 24.2069 17.37C25.101 19.0879 26.7777 19.8853 28.0316 20.2541C28.0391 20.2541 28.0474 20.2663 28.0474 20.291C28.0475 20.3275 28.0271 20.377 27.9783 20.487ZM29.7247 16.9405C29.7165 16.965 28.9036 18.8305 28.9036 18.8305C28.7861 18.9286 28.6003 18.8796 28.3873 18.8305L28.0224 18.7688C26.8765 18.4131 26.0121 17.652 25.7457 16.744C25.3782 14.9766 26.888 13.5897 27.5531 13.0867C28.1914 12.6445 29.1837 12.4114 29.7599 12.8657C30.1153 13.2831 30.2499 13.8229 30.2499 14.4124C30.2501 15.2098 30.0039 16.1057 29.7247 16.9405ZM83.3117 22.6348C82.9028 21.7513 81.9327 21.1867 80.8986 21.2479C77.5408 21.5549 74.2564 24.3163 72.5317 28.2802C71.6268 30.3178 71.1329 31.999 70.8091 34.6745C71.8534 33.4721 73.9832 31.4962 76.4001 30.4161C76.4001 30.4161 76.7289 27.8511 78.4059 25.5682C79.0405 24.6228 80.3103 23.1011 81.7363 23.506C82.9823 23.9234 82.5443 27.3723 80.8884 30.7099C79.6632 33.1648 77.7883 35.6201 75.8913 37.3134C74.2141 38.737 71.7326 40.4553 69.5616 39.1299C68.1942 38.3203 67.4967 36.626 67.6439 34.4415C68.2973 28.2438 71.1187 22.9663 75.1561 16.9526C79.3191 11.3683 83.908 5.63682 90.09 2.58031C91.3509 1.94221 92.5186 1.79497 93.528 2.18773C93.528 2.18773 87.7249 5.37873 84.9587 11.2823C84.255 12.7799 83.2763 14.8043 84.2619 16.5964C84.7769 17.529 85.6912 17.6027 86.4275 17.5536C89.8183 16.7679 92.0089 13.6016 93.7988 10.7054C94.8365 8.50852 95.7589 6.32389 95.7589 3.89374C95.7589 3.59926 95.7436 3.20667 95.7188 2.91186C97.3386 2.05306 100.661 3.57461 100.661 3.57461C103.256 4.43407 108.784 8.66851 110.648 9.47816C111.558 8.42283 113.052 6.82749 113.894 6.02957L112.675 5.28079C110.725 4.09029 108.664 2.96099 106.635 1.84428C102.026 -0.671396 98.2752 0.21205 96.3663 0.899453C95.616 1.16928 94.9305 1.40255 94.9305 1.40255C93.5137 -0.14381 91.1901 0.00309507 89.478 0.420669C83.3211 2.1879 77.6047 6.49562 71.4761 13.9702C66.9703 19.8246 64.1754 24.8813 62.6857 29.8762C61.5375 33.239 61.1885 38.1849 63.9911 41.1184C66.3739 43.6092 69.5336 43.0695 71.7647 42.174C76.599 39.793 80.9439 34.6626 83.1089 28.759C83.6315 27.0042 84.2112 24.5251 83.3117 22.6348ZM94.428 4.13942C93.7881 11.4788 88.0831 15.7871 86.6714 16.1302C85.8159 16.3017 84.3563 15.9215 85.6595 12.8414C87.5783 8.69266 90.8547 5.17061 94.3697 3.36633C94.4554 3.67322 94.453 3.86909 94.428 4.13942ZM128.27 5.07184C125.201 6.81492 122.02 7.94371 118.169 7.55112C117.102 8.7542 116.063 9.99368 115.105 11.2699C120.51 12.6445 126.239 9.58851 129.435 6.68008C132.816 3.74667 134.549 0.0527344 134.549 0.0527344C134.549 0.0527344 132.015 2.94892 128.27 5.07184ZM70.2745 11.1837H66.249L63.9783 14.8731H68.003L70.2745 11.1837Z" fill="#999999"/>
<path d="M118.148 38.6978C117.715 38.9923 117.107 38.7659 117.334 38.0911C117.9 36.3728 120.152 32.8712 120.152 32.8712L126.423 21.7483H122.128C121.923 22.0837 121.487 22.8538 121.487 22.8538C121.288 22.5228 120.694 21.7867 120.449 21.6276C119.4 20.9643 117.86 21.2779 116.798 21.8791C112.179 24.5796 108.81 29.915 106.152 34.0758C106.152 34.0758 103.355 38.701 101.802 39.045C100.59 39.1432 100.715 37.5102 100.767 37.1297C101.236 34.38 102.325 31.7661 103.421 29.3973C105.652 27.851 108.197 25.826 110.511 23.6046C115.532 18.8054 119.764 13.3684 120.383 12.1534C120.383 12.1534 119.713 12.2885 118.922 12.3129C115.06 17.7007 107.156 25.5313 104.76 26.697C105.821 24.1436 112.68 11.9568 118.516 6.12722L119.435 5.24328C120.855 3.85639 122.326 2.43279 123.473 2.19952C123.594 2.18727 123.75 2.19952 123.885 2.48226C123.936 3.56208 123.534 4.36 123.073 5.2681L122.426 6.59377C122.426 6.59377 123.342 6.42187 123.943 6.22499C124.641 4.9124 125.413 3.43916 125.129 1.68451C125.034 1.11986 124.625 0.69038 124.091 0.592108C122.35 0.260732 120.452 1.54901 118.925 2.5926L118.864 2.62916C111.015 8.77806 104.388 17.6393 98.5933 29.7408C98.1734 30.0594 96.5509 30.4403 96.2752 30.256C96.8474 29.078 97.5678 27.4944 97.9282 25.7762C97.9906 25.285 98.0486 24.7822 98.0486 24.2914C98.0486 23.235 97.795 22.2412 96.8489 21.5543C95.7394 21.0019 94.3681 21.2598 93.4434 21.6767C89.3017 23.395 86.2061 27.6418 83.9722 31.1392C82.7708 33.3613 81.5729 35.7411 81.2412 38.4662C81.0076 40.6014 81.4832 41.9762 82.6973 42.6636C83.9457 43.3014 85.517 42.6384 86.1343 42.3196C90.3304 40.1104 93.2623 35.68 95.5732 31.6298C95.6651 31.6177 96.9269 31.5811 97.8814 31.3353C97.894 31.3353 97.8994 31.3353 97.9205 31.348C97.8658 31.5315 97.3726 33.0047 97.3726 33.0047C95.9079 37.2999 95.2306 40.2212 96.6141 41.9515C98.5911 44.3939 101.864 41.866 104.527 38.5271C103.955 42.5279 106.029 43.1543 107.61 42.8477C109.425 42.357 111.449 40.4174 112.387 39.4236C112.086 40.5893 112.168 42.6762 113.82 42.8845C114.952 43.0937 115.799 42.478 116.779 41.95C120.296 40.0352 124.505 33.6547 125.598 31.81H124.165C122.611 34.1583 120.634 37.2366 118.148 38.6978ZM86.5833 38.2705C86.3602 37.939 86.2863 37.5767 86.2789 37.185C86.2361 34.7783 88.8254 30.4688 90.6529 28.121H90.6567C91.4224 29.798 93.1568 30.8759 94.2037 31.3302C92.9036 34.2269 88.4439 40.4305 86.5833 38.2705ZM94.9378 30.0353C94.814 30.1218 92.627 29.3849 92.2043 27.3599C91.8457 25.6165 93.0463 24.2543 94.2078 23.5677C94.7063 23.1746 95.4573 23.0401 96.0082 23.2357C96.5195 23.58 96.658 24.1941 96.658 24.8557C96.658 25.2615 96.6042 25.6784 96.5567 26.0587L96.5463 26.1449C96.1801 27.5056 95.6394 28.8132 94.9378 30.0353ZM112.479 37.4974C112.477 37.4974 112.064 37.8655 112.064 37.8655C111.474 38.3931 110.867 38.9576 110.134 38.6752C109.931 38.6017 109.789 38.3319 109.755 38.1226C109.721 36.613 110.401 35.2142 111.06 33.8519L111.23 33.4959C113.126 30.3296 115.33 26.5986 118.567 24.0093C119.113 23.6157 119.705 23.285 120.33 23.5429C120.474 23.6777 120.641 23.911 120.641 24.1439C120.641 24.2179 120.575 24.4141 120.537 24.4753C119.633 25.9365 118.772 27.4703 117.935 28.943C116.298 31.8518 114.601 34.8582 112.479 37.4974Z" fill="#999999"/>
</svg>
