<svg width="134" height="44" viewBox="0 0 134 44" fill="none" xmlns="http://www.w3.org/2000/svg">
<g id="Group 69">
<path id="Vector" d="M17.0236 0.341797H18.2037C22.3006 0.430861 26.3308 2.07855 29.2254 4.99539C28.1566 6.08643 27.0656 7.13293 26.0191 8.22397C24.3936 6.75441 22.4342 5.61884 20.2967 5.21805C17.1349 4.55007 13.7282 5.15126 11.0786 6.9548C8.18398 8.84741 6.22457 12.0537 5.80152 15.4827C5.33393 18.8671 6.29137 22.4297 8.49571 25.0571C10.611 27.6177 13.8395 29.2208 17.1795 29.3321C20.2967 29.5103 23.5475 28.5528 25.8187 26.3708C27.5999 24.8344 28.4238 22.4965 28.691 20.2253C24.9948 20.2253 21.2987 20.2476 17.6025 20.2253V15.6385H33.1665C33.968 20.5593 32.8102 26.1036 29.0695 29.6216C26.5757 32.1154 23.1245 33.585 19.6064 33.8744C16.1997 34.2084 12.6817 33.5627 9.65354 31.915C6.02418 29.9779 3.1296 26.7048 1.70457 22.8527C0.368611 19.3124 0.346345 15.3046 1.59324 11.742C2.72881 8.49116 4.91088 5.61884 7.7164 3.6149C10.4106 1.63323 13.6837 0.542191 17.0236 0.341797Z" fill="#999999"/>
<path id="Vector_2" d="M106.309 1.5H111.074V33.2959C109.493 33.2959 107.889 33.3181 106.309 33.2736C106.331 22.6972 106.309 12.0986 106.309 1.5Z" fill="#999999"/>
<path id="Vector_3" d="M43.7632 12.5217C46.7023 11.9651 49.8864 12.5885 52.3134 14.3475C54.5177 15.9062 56.0541 18.3554 56.5217 21.0274C57.1228 24.1223 56.3658 27.5068 54.3619 29.956C52.2021 32.6947 48.6618 34.1643 45.2105 33.9416C42.0487 33.7635 38.976 32.1826 37.1057 29.5998C34.9904 26.7497 34.4783 22.8309 35.6361 19.491C36.794 15.9062 40.0671 13.1674 43.7632 12.5217ZM44.4312 16.7523C43.2288 17.064 42.1155 17.7542 41.314 18.734C39.1542 21.3168 39.2878 25.5251 41.6702 27.9298C43.0285 29.3103 45.0769 29.956 46.9695 29.5775C48.7286 29.2658 50.2649 28.0857 51.111 26.5271C52.5806 23.8774 52.1575 20.2258 49.9087 18.155C48.4614 16.8191 46.3461 16.2624 44.4312 16.7523Z" fill="#999999"/>
<path id="Vector_4" d="M67.3656 12.5214C70.7278 11.8757 74.4017 12.8109 76.9177 15.1711C81.0147 18.845 81.46 25.7252 77.9642 29.9557C75.849 32.6276 72.42 34.0972 69.0356 33.9413C65.807 33.8523 62.6229 32.2491 60.7081 29.5995C58.5483 26.6826 58.0807 22.6747 59.3053 19.268C60.5299 15.7945 63.7362 13.1449 67.3656 12.5214ZM68.0336 16.752C66.8312 17.0637 65.7179 17.7539 64.9163 18.7114C62.7788 21.2497 62.8679 25.3912 65.1613 27.8182C66.5195 29.2655 68.6348 29.978 70.5942 29.5772C72.3309 29.2432 73.8896 28.0854 74.7357 26.5267C76.183 23.8548 75.7599 20.2032 73.4888 18.1325C72.0415 16.7965 69.9262 16.2621 68.0336 16.752Z" fill="#999999"/>
<path id="Vector_5" d="M87.3829 13.8116C89.9435 12.2084 93.3502 11.7631 96.1112 13.1436C96.9796 13.5221 97.6921 14.1678 98.3824 14.8136C98.4046 14.2124 98.3824 13.5889 98.4046 12.9655C99.8964 12.9877 101.388 12.9655 102.902 12.9877V32.6264C102.88 35.5878 102.123 38.7273 99.9855 40.8871C97.6476 43.2695 94.0627 44.0043 90.8342 43.5144C87.3829 43.0023 84.377 40.4863 83.0411 37.3022C84.377 36.6565 85.7798 36.1444 87.1603 35.5432C87.9396 37.369 89.5205 38.9277 91.5022 39.2839C93.4838 39.6402 95.7772 39.1503 97.0687 37.5026C98.4492 35.8104 98.4492 33.4947 98.3824 31.424C97.3581 32.426 96.178 33.3166 94.753 33.6506C91.658 34.519 88.2513 33.4502 85.8689 31.3572C83.4641 29.2642 82.0391 26.0356 82.1727 22.8293C82.2395 19.2 84.288 15.7042 87.3829 13.8116ZM91.992 16.6616C90.6338 16.8843 89.3646 17.6413 88.4962 18.6878C86.4032 21.1816 86.4032 25.1673 88.5185 27.6165C89.7209 29.0638 91.658 29.8654 93.5284 29.665C95.2874 29.4869 96.9128 28.3736 97.7812 26.8372C99.2507 24.2321 99.0058 20.6918 97.0241 18.4207C95.7995 17.0179 93.8401 16.3276 91.992 16.6616Z" fill="#999999"/>
<path id="Vector_6" d="M116.798 14.9493C119.47 12.4555 123.589 11.6094 127.018 12.9231C130.269 14.1478 132.34 17.2427 133.386 20.4268C128.554 22.4307 123.745 24.4124 118.913 26.4163C119.581 27.6855 120.605 28.8433 121.986 29.3109C123.923 30.0012 126.239 29.7562 127.864 28.4648C128.51 27.975 129.022 27.3292 129.512 26.7058C130.736 27.5296 131.961 28.3312 133.186 29.1551C131.449 31.7602 128.532 33.586 125.393 33.8755C121.919 34.2985 118.223 32.9625 115.974 30.2461C112.278 25.971 112.634 18.8014 116.798 14.9493ZM119.18 19.0685C118.423 20.1596 118.112 21.4955 118.134 22.8092C121.362 21.4733 124.591 20.1373 127.82 18.7791C127.285 17.5322 125.994 16.7751 124.68 16.5748C122.565 16.1962 120.36 17.3318 119.18 19.0685Z" fill="#999999"/>
</g>
</svg>
