<svg width="40" height="40" viewBox="0 0 40 40" fill="none" xmlns="http://www.w3.org/2000/svg">
<path d="M32.6867 9.0255C31.9537 8.27809 31.0833 7.6852 30.1254 7.28068C29.1675 6.87617 28.1407 6.66797 27.1038 6.66797C26.0669 6.66797 25.0402 6.87617 24.0822 7.28068C23.1243 7.6852 22.254 8.27809 21.5209 9.0255L19.9996 10.5759L18.4783 9.0255C16.9976 7.5165 14.9894 6.66875 12.8954 6.66875C10.8014 6.66875 8.79319 7.5165 7.31251 9.0255C5.83184 10.5345 5 12.5811 5 14.7152C5 16.8492 5.83184 18.8959 7.31251 20.4049L8.83382 21.9553L19.9996 33.3346L31.1654 21.9553L32.6867 20.4049C33.4201 19.6578 34.0019 18.7708 34.3988 17.7946C34.7957 16.8183 35 15.7719 35 14.7152C35 13.6584 34.7957 12.6121 34.3988 11.6358C34.0019 10.6595 33.4201 9.77255 32.6867 9.0255V9.0255Z" stroke="#111111" stroke-width="2" stroke-linecap="round" stroke-linejoin="round"/>
</svg>
