<svg width="46" height="44" viewBox="0 0 46 44" fill="none" xmlns="http://www.w3.org/2000/svg">
<g id="invision-logo-svgrepo-com 1" clip-path="url(#clip0_7905_29619)">
<path id="Vector" d="M41.241 0H4.39967C2.14668 0 0.320312 1.78578 0.320312 3.9887V40.0113C0.320312 42.2142 2.14668 44 4.39967 44H41.241C43.4939 44 45.3203 42.2142 45.3203 40.0113V3.9887C45.3203 1.78578 43.4939 0 41.241 0Z" fill="#999999"/>
<path id="Vector_2" d="M15.3591 13.8435C16.855 13.8435 18.1081 12.6971 18.1081 11.1946C18.1081 9.69311 16.855 8.54688 15.3591 8.54688C13.8632 8.54688 12.6104 9.69311 12.6104 11.1946C12.6104 12.697 13.8632 13.8435 15.3591 13.8435ZM9.6592 28.0267C9.49766 28.6987 9.41662 29.4244 9.41662 30.0163C9.41662 32.3488 10.7102 33.8972 13.4592 33.8972C15.7391 33.8972 17.5875 32.5735 18.9183 30.4358L18.1057 33.6246H22.6329L25.2204 23.4773C25.8673 20.9081 27.1204 19.5745 29.0206 19.5745C30.5163 19.5745 31.4461 20.4841 31.4461 21.9856C31.4461 22.4206 31.4056 22.8945 31.2439 23.4086L29.9097 28.0727C29.7076 28.7448 29.6271 29.4171 29.6271 30.0491C29.6271 32.2634 30.9607 33.883 33.7502 33.883C36.1354 33.883 38.0352 32.3816 39.0864 28.7845L37.3078 28.1131C36.4184 30.523 35.6502 30.9587 35.0438 30.9587C34.4373 30.9587 34.1139 30.5637 34.1139 29.7736C34.1139 29.4178 34.1951 29.023 34.316 28.5476L35.61 24.0036C35.9332 22.9366 36.0547 21.9904 36.0547 21.1211C36.0547 17.7217 33.9523 15.9476 31.4056 15.9476C29.0206 15.9476 26.5948 18.0512 25.3823 20.2651L26.2714 16.2914H19.359L18.3887 19.7915H21.6229L19.6313 27.5877C18.0673 30.987 15.1946 31.0422 14.834 30.9633C14.242 30.8327 13.8634 30.6129 13.8634 29.8607C13.8634 29.4268 13.9442 28.8034 14.1464 28.0518L17.1786 16.2914H9.49766L8.52734 19.7915H11.7208L9.6592 28.0267Z" fill="#F2F2F2"/>
</g>
<defs>
<clipPath id="clip0_7905_29619">
<rect width="45" height="44" fill="white" transform="translate(0.320312)"/>
</clipPath>
</defs>
</svg>
