<svg width="72" height="72" viewBox="0 0 72 72" fill="none" xmlns="http://www.w3.org/2000/svg">
<g id="Vector">
<path id="Vector_2" d="M36 0C16.1175 0 0 16.1175 0 36C0 55.8825 16.1175 72 36 72C55.8825 72 72 55.8825 72 36C72 16.1175 55.8825 0 36 0ZM27.1875 50.9212H19.8975V27.4612H27.1875V50.9212ZM23.4975 24.5812C21.195 24.5812 19.7062 22.95 19.7062 20.9325C19.7062 18.8737 21.24 17.2912 23.5912 17.2912C25.9425 17.2912 27.3825 18.8737 27.4275 20.9325C27.4275 22.95 25.9425 24.5812 23.4975 24.5812ZM53.8125 50.9212H46.5225V37.92C46.5225 34.8937 45.465 32.8387 42.8288 32.8387C40.815 32.8387 39.6188 34.23 39.09 35.5687C38.895 36.045 38.8462 36.72 38.8462 37.3913V50.9175H31.5525V34.9425C31.5525 32.0138 31.4587 29.565 31.3612 27.4575H37.695L38.0288 30.7162H38.175C39.135 29.1862 41.4862 26.9287 45.42 26.9287C50.2162 26.9287 53.8125 30.1425 53.8125 37.05V50.9212Z" fill="white"/>
</g>
</svg>
