<svg width="286" height="48" viewBox="0 0 286 48" fill="none" xmlns="http://www.w3.org/2000/svg">
<path d="M14.2588 47.4062H0.546875V0.776986H24.2613L51.4668 35.5885V0.776986H65.1787V47.4062H41.9446L14.2588 12.0005V47.4062ZM130.785 32.9883C130.785 39.4698 129.639 41.7034 127.741 43.8479C124.831 47.0395 120.6 47.9985 112.444 47.9985H89.0323C80.8758 47.9985 76.6397 47.0386 73.7328 43.8479C71.8377 41.7052 70.6895 39.4698 70.6895 32.9883V15.0129C70.6895 8.53229 71.8377 6.2996 73.7328 4.15333C76.6397 0.958951 80.8767 0 89.0323 0H112.445C120.6 0 124.832 0.95986 127.741 4.15333C129.639 6.29869 130.785 8.53138 130.785 15.0129V32.9883ZM111.868 36.1826C115 36.1826 116.104 35.9998 116.854 35.3165C117.558 34.6778 117.868 33.8562 117.868 31.1168V16.8826C117.868 14.1441 117.558 13.327 116.854 12.6856C116.104 12.0005 115 11.8195 111.868 11.8195H89.6065C86.4749 11.8195 85.3712 12.0005 84.6234 12.6856C83.9174 13.327 83.6089 14.145 83.6089 16.8826V31.1168C83.6089 33.8553 83.9164 34.6778 84.6234 35.3165C85.3712 35.9998 86.4749 36.1826 89.6065 36.1826H111.868ZM150.712 0.776986V47.4062H136.385V0.776986H150.712ZM174.918 0.776986H193.832L168.305 22.5881L197.096 47.4062H176.856L150.712 23.0876L174.918 0.776986ZM199.739 0.776986H214.071V47.4062H199.739V0.776986ZM268.7 47.4062L264.46 39.2833H236.734L232.546 47.4062H216.717L242.114 0.776077H259.924L285.321 47.4062H268.7ZM241.713 29.1552H259.529L250.619 12.2735L241.713 29.1552Z" fill="#999999"/>
</svg>
