<svg width="150" height="44" viewBox="0 0 150 44" fill="none" xmlns="http://www.w3.org/2000/svg">
<path d="M23.0241 0C10.6839 0 0.679688 9.84967 0.679688 21.9996C0.679688 34.1508 10.6839 44 23.0241 44C35.3649 44 45.3685 34.1509 45.3685 21.9996C45.3685 9.85045 35.3654 0.00105002 23.0238 0.00105002L23.0241 0ZM33.2711 31.7297C32.8698 32.3778 32.0122 32.5809 31.3561 32.1861C26.1091 29.0286 19.5047 28.3153 11.7269 30.0647C10.9774 30.2339 10.2303 29.7713 10.0595 29.0336C9.88795 28.2956 10.3557 27.5601 11.1071 27.3919C19.6187 25.476 26.9197 26.3006 32.8092 29.844C33.4656 30.2407 33.674 31.0835 33.2711 31.7297ZM36.006 25.7403C35.5007 26.5476 34.4286 26.8008 33.6097 26.3051C27.6049 22.6708 18.4484 21.6182 11.3443 23.7414C10.4229 24.0154 9.44983 23.5041 9.1702 22.5986C8.89271 21.6915 9.41222 20.7352 10.3319 20.4594C18.4468 18.0351 28.5348 19.2094 35.4321 23.3825C36.2512 23.879 36.5103 24.9349 36.006 25.7403ZM36.2408 19.5026C29.0382 15.2911 17.1577 14.9039 10.282 16.9585C9.17793 17.2882 8.01032 16.6745 7.67572 15.5874C7.34113 14.4998 7.96389 13.351 9.06879 13.0205C16.9616 10.6614 30.0826 11.1172 38.3738 15.9634C39.3669 16.5437 39.6927 17.8065 39.1041 18.783C38.5171 19.7608 37.2307 20.0831 36.2408 19.5026ZM61.4715 20.3096C57.6135 19.4038 56.9267 18.7681 56.9267 17.4322C56.9267 16.1701 58.1335 15.3208 59.9282 15.3208C61.6678 15.3208 63.3928 15.9658 65.2013 17.2935C65.2561 17.3337 65.3246 17.3497 65.3921 17.3392C65.4596 17.3292 65.5194 17.2927 65.5589 17.2378L67.4427 14.6233C67.52 14.5156 67.4989 14.3672 67.3946 14.2849C65.2422 12.5845 62.8184 11.7577 59.9853 11.7577C55.8197 11.7577 52.91 14.219 52.91 17.7406C52.91 21.517 55.42 22.8542 59.7574 23.8864C63.4492 24.7236 64.0722 25.4251 64.0722 26.6789C64.0722 28.0684 62.8123 28.9322 60.7847 28.9322C58.5327 28.9322 56.6959 28.1853 54.6411 26.4333C54.5902 26.39 54.5202 26.3703 54.4557 26.374C54.3876 26.3795 54.3255 26.4105 54.2822 26.4617L52.1701 28.9367C52.0815 29.0394 52.0927 29.1928 52.1952 29.2816C54.5859 31.383 57.5263 32.4929 60.6993 32.4929C65.188 32.4929 68.0887 30.0781 68.0887 26.3406C68.0967 23.1855 66.1782 21.4385 61.4795 20.313L61.4715 20.3096ZM78.2439 16.5634C76.2982 16.5634 74.7023 17.3179 73.3864 18.8639V17.1237C73.3864 16.9864 73.2732 16.8744 73.134 16.8744H69.6794C69.5399 16.8744 69.427 16.9864 69.427 17.1237V36.4595C69.427 36.5969 69.5399 36.7088 69.6794 36.7088H73.134C73.2732 36.7088 73.3864 36.5969 73.3864 36.4595V30.356C74.7026 31.8104 76.2987 32.521 78.2439 32.521C81.859 32.521 85.5187 29.781 85.5187 24.5431C85.5241 19.304 81.8633 16.5631 78.2479 16.5631L78.2439 16.5634ZM81.5017 24.5431C81.5017 27.2104 79.833 29.0717 77.4436 29.0717C75.0815 29.0717 73.2997 27.1258 73.2997 24.5431C73.2997 21.9607 75.0815 20.0146 77.4436 20.0146C79.7943 20.0143 81.5017 21.9187 81.5017 24.5431ZM94.8988 16.5634C90.2431 16.5634 86.5956 20.0931 86.5956 24.6001C86.5956 29.058 90.218 32.5507 94.8418 32.5507C99.5141 32.5507 103.173 29.0328 103.173 24.5431C103.173 20.069 99.5389 16.5634 94.8988 16.5634ZM94.8988 29.0982C92.4225 29.0982 90.5555 27.1392 90.5555 24.5418C90.5555 21.9334 92.3579 20.0406 94.8417 20.0406C97.3341 20.0406 99.2136 21.9996 99.2136 24.5988C99.2136 27.2067 97.399 29.0982 94.8988 29.0982ZM113.115 16.8745H109.313V13.0479C109.313 12.9107 109.201 12.7988 109.061 12.7988H105.607C105.467 12.7988 105.354 12.9107 105.354 13.0479V16.8745H103.693C103.554 16.8745 103.441 16.9864 103.441 17.1238V20.0469C103.441 20.184 103.554 20.2962 103.693 20.2962H105.354V27.8598C105.354 30.9164 106.899 32.4661 109.946 32.4661C111.186 32.4661 112.214 32.2142 113.183 31.6733C113.261 31.6299 113.31 31.5464 113.31 31.4576V28.6739C113.31 28.588 113.265 28.5069 113.19 28.462C113.115 28.4154 113.021 28.4131 112.944 28.4506C112.278 28.7803 111.635 28.9324 110.916 28.9324C109.808 28.9324 109.313 28.437 109.313 27.3265V20.2975H113.115C113.254 20.2975 113.367 20.1856 113.367 20.0482V17.1254C113.372 16.988 113.26 16.8761 113.118 16.8761L113.115 16.8745ZM126.36 16.8894V16.4194C126.36 15.0368 126.898 14.4202 128.106 14.4202C128.826 14.4202 129.404 14.561 130.052 14.7738C130.132 14.7986 130.215 14.7862 130.28 14.7392C130.347 14.6921 130.385 14.6167 130.385 14.5369V11.6707C130.385 11.5612 130.313 11.4643 130.206 11.4319C129.521 11.2315 128.646 11.0258 127.334 11.0258C124.144 11.0258 122.457 12.7949 122.457 16.1399V16.8597H120.798C120.658 16.8597 120.544 16.9716 120.544 17.1088V20.0469C120.544 20.184 120.658 20.2962 120.798 20.2962H122.457V31.9627C122.457 32.1001 122.57 32.212 122.709 32.212H126.164C126.303 32.212 126.417 32.1001 126.417 31.9627V20.297H129.642L134.583 31.9607C134.022 33.1862 133.471 33.43 132.718 33.43C132.109 33.43 131.468 33.2511 130.813 32.898C130.751 32.8646 130.678 32.8591 130.612 32.8794C130.546 32.9022 130.49 32.9505 130.462 33.0136L129.291 35.5427C129.236 35.6622 129.283 35.8025 129.4 35.8645C130.622 36.5163 131.726 36.7945 133.09 36.7945C135.64 36.7945 137.05 35.6246 138.293 32.4774L144.286 17.2299C144.316 17.1532 144.307 17.0665 144.259 16.9984C144.212 16.9309 144.135 16.8902 144.052 16.8902H140.455C140.348 16.8902 140.251 16.9577 140.216 17.0573L136.532 27.4179L132.497 17.0505C132.46 16.954 132.366 16.8902 132.261 16.8902H126.359L126.36 16.8894ZM118.681 16.8745H115.226C115.087 16.8745 114.973 16.9864 114.973 17.1238V31.9628C114.973 32.1001 115.087 32.2121 115.226 32.2121H118.681C118.82 32.2121 118.934 32.1001 118.934 31.9628V17.1248C118.934 17.092 118.927 17.0595 118.915 17.0292C118.902 16.9989 118.883 16.9714 118.86 16.9483C118.836 16.9251 118.808 16.9067 118.777 16.8942C118.747 16.8818 118.714 16.8754 118.68 16.8755L118.681 16.8745ZM116.973 10.1179C115.604 10.1179 114.494 11.2086 114.494 12.5561C114.494 13.9043 115.605 14.9964 116.973 14.9964C118.341 14.9964 119.45 13.9043 119.45 12.5561C119.45 11.2089 118.34 10.1179 116.974 10.1179H116.973ZM147.236 21.6455C145.869 21.6455 144.805 20.5644 144.805 19.2517C144.805 17.9389 145.883 16.8456 147.249 16.8456C148.616 16.8456 149.68 17.9263 149.68 19.238C149.68 20.5508 148.602 21.6455 147.236 21.6455ZM147.249 17.0836C146.004 17.0836 145.062 18.0582 145.062 19.2517C145.062 20.4446 145.997 21.4062 147.237 21.4062C148.482 21.4062 149.425 20.4323 149.425 19.238C149.425 18.0451 148.488 17.0836 147.25 17.0836H147.249ZM147.788 19.4842L148.476 20.432H147.896L147.277 19.5625H146.745V20.432H146.259V17.9195H147.397C147.99 17.9195 148.38 18.2182 148.38 18.721C148.383 19.133 148.14 19.3846 147.79 19.4842L147.788 19.4842ZM147.377 18.3506H146.744V19.1453H147.377C147.693 19.1453 147.882 18.9932 147.882 18.7476C147.882 18.4891 147.692 18.3506 147.377 18.3506Z" fill="#999999"/>
</svg>
