<svg width="150" height="114" viewBox="0 0 150 114" fill="none" xmlns="http://www.w3.org/2000/svg">
<path d="M113.026 34.6285C104.196 36.5095 99.8517 43.036 100.363 53.695L109.789 52.8685C109.363 46.855 111.18 45.43 113.054 44.632L113.026 34.6285ZM99.9652 70.4245V79.7725H130.374M130.374 79.7725V69.5125L99.9652 70.4245M126.285 37.5355C123.475 34.8565 119.329 33.745 114.786 34.4005V44.2045C116.632 44.0905 118.108 44.7745 118.761 46.171C119.812 48.337 118.733 51.586 116.178 54.607C112.259 59.2525 101.811 68.7715 101.811 68.7715L116.802 68.287C125.973 59.3095 129.267 53.8375 129.835 47.026C130.147 43.4635 128.841 39.9865 126.285 37.5355ZM59.7894 71.65V79.7725H71.0613V71.308L59.7894 71.65ZM50.5901 44.5465V79.7725H58.3697V43.435L50.5901 44.5465ZM84.0368 70.909V79.7725H97.0692V70.51L84.0368 70.909ZM84.0368 55.3195V64.3255L92.5831 63.8695V54.5785L84.0368 55.3195ZM84.0368 39.8155V48.679L97.0692 47.254V37.9915L84.0368 39.8155ZM73.4463 41.2975V79.7725H82.3901V40.0435L73.4463 41.2975ZM38.1256 72.3055V79.7725H47.9779V71.992L38.1256 72.3055ZM38.1256 59.281V66.862L44.5992 66.52V58.711L38.1256 59.281ZM38.1256 46.285V53.7235L47.9779 52.6405V44.8885L38.1256 46.285ZM30.0336 47.425V79.7725H36.8479V46.4845L30.0336 47.425ZM15.6385 57.229V79.7725H22.112V56.5735L15.6385 57.229ZM9.98828 50.275V56.8585L27.6486 54.9205V47.7955L9.98828 50.275Z" fill="#999999"/>
</svg>
