<svg width="88" height="88" viewBox="0 0 88 88" fill="none" xmlns="http://www.w3.org/2000/svg">
<g id="xiaomi-logo-svgrepo-com 1" clip-path="url(#clip0_4045_18169)">
<g id="Clip path group">
<mask id="mask0_4045_18169" style="mask-type:luminance" maskUnits="userSpaceOnUse" x="0" y="0" width="88" height="88">
<g id="b">
<path id="Vector" d="M0.679688 0H87.6797V88H0.679688V0Z" fill="white"/>
</g>
</mask>
<g mask="url(#mask0_4045_18169)">
<path id="Vector_2" d="M59.6045 66.3814V34.3032C59.6045 27.0148 53.7648 21.1055 46.56 21.1055H9.89058C9.60772 21.1055 9.37891 21.3358 9.37891 21.6188V66.3811C9.37891 66.6642 9.60772 66.8935 9.89058 66.8935H19.6853C19.7523 66.8937 19.8188 66.8805 19.8808 66.8547C19.9428 66.8288 19.9992 66.7909 20.0467 66.743C20.0943 66.6951 20.132 66.6382 20.1578 66.5756C20.1835 66.513 20.1968 66.4458 20.1969 66.378V31.2449C20.197 31.177 20.2103 31.1098 20.236 31.0471C20.2618 30.9844 20.2995 30.9274 20.347 30.8795C20.3946 30.8315 20.451 30.7935 20.513 30.7676C20.5751 30.7417 20.6416 30.7284 20.7087 30.7285H41.7714C45.7263 30.7285 48.9342 33.9712 48.9342 37.9725V66.3767C48.9343 66.5135 48.988 66.6446 49.0836 66.7413C49.1792 66.838 49.3088 66.8924 49.444 66.8924H59.0949C59.3755 66.8924 59.6049 66.6624 59.6049 66.3798" fill="#999999"/>
</g>
</g>
<g id="Group">
<g id="Clip path group_2">
<mask id="mask1_4045_18169" style="mask-type:luminance" maskUnits="userSpaceOnUse" x="0" y="0" width="88" height="88">
<g id="d">
<path id="Vector_3" d="M0.679688 0H87.6797V88H0.679688V0Z" fill="white"/>
</g>
</mask>
<g mask="url(#mask1_4045_18169)">
<path id="Vector_4" d="M39.8219 66.3784C39.8221 66.4462 39.809 66.5133 39.7834 66.5759C39.7579 66.6385 39.7203 66.6955 39.6729 66.7434C39.6256 66.7913 39.5693 66.8292 39.5074 66.8551C39.4454 66.8809 39.3791 66.8941 39.3121 66.894H29.5196C29.2367 66.894 29.0078 66.6635 29.0078 66.3784V39.4559C29.0079 39.388 29.0212 39.3208 29.0469 39.2581C29.0727 39.1954 29.1104 39.1384 29.1579 39.0905C29.2055 39.0425 29.2619 39.0045 29.3239 38.9786C29.386 38.9527 29.4525 38.9394 29.5196 38.9395H39.3121C39.3791 38.9394 39.4455 38.9527 39.5074 38.9787C39.5694 39.0046 39.6256 39.0427 39.673 39.0906C39.7203 39.1386 39.7579 39.1956 39.7834 39.2583C39.809 39.3209 39.8221 39.3881 39.8219 39.4559V66.3795V66.3784Z" fill="#999999"/>
</g>
</g>
</g>
<g id="Group_2">
<g id="Clip path group_3">
<mask id="mask2_4045_18169" style="mask-type:luminance" maskUnits="userSpaceOnUse" x="0" y="0" width="88" height="88">
<g id="f">
<path id="Vector_5" d="M0.679688 0H87.6797V88H0.679688V0Z" fill="white"/>
</g>
</mask>
<g mask="url(#mask2_4045_18169)">
<path id="Vector_6" d="M78.9803 66.3776C78.9803 66.6627 78.7515 66.8932 78.4685 66.8932H68.6781C68.395 66.8932 68.1641 66.6627 68.1641 66.3776V21.623C68.1641 21.3368 68.395 21.1055 68.6781 21.1055H78.4685C78.5357 21.1054 78.6023 21.1187 78.6644 21.1447C78.7265 21.1707 78.7829 21.2088 78.8305 21.2569C78.878 21.305 78.9157 21.362 78.9415 21.4249C78.9672 21.4877 78.9804 21.555 78.9803 21.623V66.3776Z" fill="#999999"/>
</g>
</g>
</g>
</g>
<defs>
<clipPath id="clip0_4045_18169">
<rect width="87" height="88" fill="white" transform="translate(0.679688)"/>
</clipPath>
</defs>
</svg>
